<?xml version="1.0" encoding="UTF-8"?>
<svg version="1.1" xmlns="http://www.w3.org/2000/svg" width="593" height="593">
<path d="M0 0 C3.71573975 1.93380871 7.28908378 4.08688091 10.875 6.25 C13.01970978 7.52272856 15.1655808 8.79350196 17.3125 10.0625 C18.41464844 10.71476562 19.51679688 11.36703125 20.65234375 12.0390625 C26.01899979 15.18265799 31.44295548 18.22119327 36.875 21.25 C37.92163818 21.83394531 38.96827637 22.41789062 40.04663086 23.01953125 C43.02992395 24.68178905 46.01470885 26.34133385 49 28 C50.64717263 28.91659979 52.29431069 29.83326173 53.94140625 30.75 C59.72309808 33.96589244 65.50880254 37.1745141 71.296875 40.37890625 C84.52185807 47.70590191 97.68041473 55.14909223 110.83251953 62.60595703 C122.06854677 68.97637443 133.32696226 75.30260441 144.625 81.5625 C153.4553362 86.45511799 162.2480691 91.40504813 170.99951172 96.43725586 C177.62641058 100.23848163 184.30030369 103.95190887 190.98580933 107.64874268 C207.98025965 117.05303034 207.98025965 117.05303034 215.9375 121.625 C216.94731934 122.19081787 216.94731934 122.19081787 217.97753906 122.76806641 C221.93719909 125.07181198 224.63915945 127.06275564 227 131 C227.59153586 134.68840492 227.53071487 138.34153537 227.49447632 142.07015991 C227.49930515 143.20063708 227.50413398 144.33111425 227.50910914 145.4958483 C227.52040041 149.29222482 227.50304447 153.08793083 227.48583984 156.88427734 C227.48577154 159.60269565 227.49170165 162.32109336 227.49734497 165.039505 C227.50742718 171.66203936 227.49614756 178.28437393 227.47764437 184.90688346 C227.45686926 192.62010251 227.45701697 200.33327842 227.45798953 208.04652019 C227.45899083 221.81100353 227.44066746 235.57539395 227.41162109 249.33984375 C227.38345716 262.69305108 227.36927909 276.04617662 227.37060547 289.39941406 C227.37068538 290.2215404 227.37076529 291.04366673 227.37084763 291.89070599 C227.37092834 292.71141628 227.37100905 293.53212658 227.3710922 294.37770689 C227.37247275 309.58143963 227.36068536 324.78513763 227.34278577 339.98885911 C227.33675758 345.3637223 227.33462717 350.73857909 227.33372116 356.11344528 C227.33235531 362.66635414 227.3234043 369.21920448 227.30505554 375.77208851 C227.29583567 379.11471888 227.29078868 382.45721111 227.29224396 385.79986382 C227.29322507 389.42529168 227.28191664 393.05047851 227.26742554 396.6758728 C227.27052274 397.72986499 227.27361995 398.78385718 227.276811 399.86978853 C227.19220387 412.67133364 227.19220387 412.67133364 223.0546875 417.06640625 C218.53384228 419.92806659 213.85295468 422.4365649 209.125 424.9375 C200.84380109 429.36988561 192.60601771 433.86299491 184.4375 438.5 C183.01800049 439.30546265 183.01800049 439.30546265 181.56982422 440.12719727 C179.6599506 441.21207955 177.75044367 442.29760765 175.84130859 443.38378906 C171.14767223 446.05365268 166.44954169 448.71554743 161.75 451.375 C160.81075684 451.90681885 159.87151367 452.4386377 158.90380859 452.98657227 C152.61892776 456.53859634 146.31128567 460.04757693 139.9934082 463.54052734 C129.1023699 469.56225706 118.29814419 475.704 107.56884766 482.00927734 C100.60622918 486.09097203 93.57994244 490.03333556 86.49291992 493.89428711 C80.24761976 497.29951733 74.0568677 500.79362311 67.875 504.3125 C58.56707415 509.6028653 49.1662811 514.70190632 39.72583008 519.7512207 C31.35739177 524.23898918 23.07115917 528.85892563 14.82226562 533.5625 C13.09197582 534.54903494 11.35976398 535.53220775 9.62548828 536.51171875 C7.76796268 537.56467356 5.91806733 538.63114244 4.07373047 539.70703125 C3.10967285 540.25746094 2.14561523 540.80789063 1.15234375 541.375 C0.28472412 541.87773438 -0.58289551 542.38046875 -1.47680664 542.8984375 C-4.26719218 544.11664936 -5.98917855 544.34104553 -9 544 C-11.50691633 542.70936929 -13.81328965 541.37675956 -16.1875 539.875 C-23.57626341 535.36183677 -31.10773149 531.19300214 -38.75 527.125 C-47.56297339 522.4184459 -56.29423317 517.60432708 -64.94946289 512.61425781 C-72.15686396 508.46439659 -79.41414012 504.40795091 -86.6875 500.375 C-87.26842407 500.05267395 -87.84934814 499.7303479 -88.44787598 499.39825439 C-93.91908629 496.36278886 -99.3929396 493.33223516 -104.875 490.31640625 C-112.06622379 486.35302949 -119.19554865 482.30940044 -126.2668457 478.13500977 C-137.00678816 471.7986283 -147.87550857 465.80258677 -158.90704346 459.99624634 C-168.98921656 454.68538207 -178.86887023 449.1188033 -188.640625 443.25195312 C-189.55585938 442.70603516 -190.47109375 442.16011719 -191.4140625 441.59765625 C-192.2076416 441.11820557 -193.0012207 440.63875488 -193.81884766 440.14477539 C-195.8958782 439.05464821 -197.70798384 438.45167546 -200 438 C-200 437.34 -200 436.68 -200 436 C-201.05405029 435.60035034 -201.05405029 435.60035034 -202.12939453 435.19262695 C-206.96021043 433.18560742 -211.49992358 430.62277131 -216.10107422 428.14233398 C-217.86003183 427.19555677 -219.623363 426.25691969 -221.38671875 425.31835938 C-237.05274277 416.89451446 -237.05274277 416.89451446 -239 413 C-239.0977965 411.45179827 -239.13279176 409.89943672 -239.13701439 408.34815502 C-239.14208893 407.36145547 -239.14716347 406.37475592 -239.15239179 405.35815638 C-239.15288955 404.2662543 -239.15338731 403.17435221 -239.15390015 402.04936218 C-239.1582824 400.89553584 -239.16266465 399.74170951 -239.1671797 398.55291873 C-239.17826064 395.34044086 -239.1847972 392.12799051 -239.18936086 388.9154979 C-239.19531104 385.45459067 -239.20692227 381.99370148 -239.21765137 378.5328064 C-239.24218764 370.17018553 -239.25680373 361.80755868 -239.26971143 353.44491288 C-239.27342228 351.08389948 -239.2773956 348.72288667 -239.2814641 346.36187387 C-239.30669804 331.70756982 -239.32875617 317.05326488 -239.34119225 302.3989439 C-239.34412205 299.00367415 -239.3470837 295.60840444 -239.35009766 292.21313477 C-239.35084371 291.36923334 -239.35158976 290.52533192 -239.35235842 289.65585772 C-239.36501718 275.97936245 -239.39824659 262.30299703 -239.43989949 248.6265625 C-239.48229103 234.59285015 -239.505884 220.55920434 -239.51111281 206.52542812 C-239.51452995 198.64285208 -239.52632071 190.76047903 -239.55921555 182.87796593 C-239.58717904 176.16605687 -239.59823178 169.45439238 -239.58702008 162.74242958 C-239.58182391 159.31687504 -239.58478103 155.89183296 -239.60948563 152.46635246 C-239.63202576 148.75433196 -239.62395096 145.0436139 -239.60800171 141.33158875 C-239.6218838 140.24637882 -239.63576588 139.1611689 -239.65006864 138.04307383 C-239.57242867 130.73933246 -239.57242867 130.73933246 -236.57793617 126.87173176 C-232.49499701 123.9072802 -232.49499701 123.9072802 -230.3828125 122.78125 C-229.70613525 122.41362549 -229.02945801 122.04600098 -228.33227539 121.66723633 C-227.60387451 121.28204834 -226.87547363 120.89686035 -226.125 120.5 C-224.50070273 119.61959445 -222.87703441 118.73802783 -221.25390625 117.85546875 C-220.39684082 117.39188965 -219.53977539 116.92831055 -218.65673828 116.45068359 C-214.0943591 113.95944512 -209.58143789 111.38142644 -205.0625 108.8125 C-196.5261256 103.97315647 -187.95875463 99.19224169 -179.375 94.4375 C-171.38567511 90.01098976 -163.41936706 85.55052032 -155.5 81 C-145.33577 75.16074352 -135.08852796 69.47525815 -124.8359375 63.79296875 C-118.33932344 60.19160485 -111.85469987 56.5691932 -105.375 52.9375 C-104.35180664 52.36402832 -103.32861328 51.79055664 -102.27441406 51.19970703 C-100.21379988 50.04455364 -98.15325284 48.8892805 -96.09277344 47.73388672 C-91.93879122 45.40505962 -87.78365697 43.07829272 -83.62841797 40.75170898 C-81.54661243 39.58603435 -79.46490632 38.42018213 -77.38330078 37.25415039 C-72.12690481 34.30982773 -66.86928539 31.36772774 -61.609375 28.4296875 C-45.04719169 19.17468523 -28.48099728 9.91694186 -12.1796875 0.20703125 C-7.5726393 -2.34418361 -4.70408617 -1.91623924 0 0 Z " fill="#203352" transform="translate(305,26)"/>
<path d="M0 0 C1.48668823 0.71124184 2.95036606 1.47158864 4.39453125 2.265625 C5.2563501 2.73718018 6.11816895 3.20873535 7.00610352 3.69458008 C8.39526978 4.46451294 8.39526978 4.46451294 9.8125 5.25 C10.77792725 5.78069092 11.74335449 6.31138184 12.73803711 6.8581543 C17.87743355 9.69163978 22.99865023 12.55655823 28.109375 15.44140625 C29.09929443 15.99932861 30.08921387 16.55725098 31.10913086 17.13208008 C33.07350391 18.249777 35.03017828 19.38111732 36.97875977 20.52612305 C42.87502112 23.97045875 42.87502112 23.97045875 49.23046875 26.390625 C53.39462044 27.777135 55.2700224 28.5195131 58 32 C60.20345176 40.00766616 60.37717227 48.42449271 60.79492188 56.67724609 C62.13607272 78.40708298 71.15624954 100.62248671 80.26342773 120.18969727 C81 122 81 122 81 124 C81.88526367 124.27585937 82.77052734 124.55171875 83.68261719 124.8359375 C86.69250374 125.89210022 89.28832872 127.09493938 92.078125 128.625 C93.0573291 129.15786621 94.0365332 129.69073242 95.04541016 130.23974609 C96.63168213 131.11107178 96.63168213 131.11107178 98.25 132 C100.57491863 133.26414728 102.90038708 134.52723403 105.2265625 135.7890625 C105.84159637 136.12322174 106.45663025 136.45738098 107.09030151 136.80166626 C114.17904251 140.64913617 121.30044465 144.43474499 128.4276123 148.21044922 C129.86695365 148.97325775 131.30585423 149.73689867 132.7442627 150.50146484 C140.32842576 154.53268264 147.93657301 158.50673324 155.6171875 162.3515625 C156.26265533 162.67474457 156.90812317 162.99792664 157.57315063 163.3309021 C162.98741837 166.02489905 168.46647531 168.56149759 174 171 C170.97576594 173.48802235 168.09033238 174.86863596 164.4375 176.25 C144.42772344 184.43361007 129.47508391 200.26011706 121 220 C120.71125 220.83402344 120.4225 221.66804687 120.125 222.52734375 C119 225 119 225 117.1796875 226.78515625 C106.62806599 237.5069652 102.27725997 254.78007816 99 269 C98.80664062 269.80042725 98.61328125 270.60085449 98.4140625 271.42553711 C97.95612648 274.27278669 98.08273647 276.73352936 98.31640625 279.60546875 C99.12357733 296.41962018 99.12357733 296.41962018 95.22265625 301.15966797 C90.53861227 304.83219718 84.84375174 307.72146398 79 309 C78.34 308.67 77.68 308.34 77 308 C76.62109375 306.07421875 76.62109375 306.07421875 76.4375 303.6875 C76.19507497 300.69429294 75.93813386 297.8647712 75 295 C73.23470405 293.78309467 73.23470405 293.78309467 71 293 C70.29875 292.62875 69.5975 292.2575 68.875 291.875 C61.51024621 289.63355319 56.04710119 290.70825069 49.15625 294.03125 C47.99931641 294.58361328 46.84238281 295.13597656 45.65039062 295.70507812 C44.77576172 296.13240234 43.90113281 296.55972656 43 297 C42.99453156 296.04065804 42.99453156 296.04065804 42.98895264 295.06193542 C42.94690346 288.36099868 42.87740255 281.66073263 42.79248047 274.96020508 C42.76438268 272.46483085 42.74311293 269.96936948 42.72900391 267.47387695 C42.70741961 263.87145731 42.66068788 260.27007328 42.609375 256.66796875 C42.60753204 255.01416451 42.60753204 255.01416451 42.60565186 253.32695007 C42.35331942 239.7590555 37.49083613 230.13273176 27.875 220.8125 C16.67618753 211.17013265 3.33747449 210.26646053 -10.73876953 210.82519531 C-21.31130617 211.6425065 -30.6345679 218.23051222 -37.8125 225.6875 C-44.90865155 234.59154305 -46.7453978 244.07043832 -46.70703125 255.203125 C-46.72971321 257.00882965 -46.72971321 257.00882965 -46.75285339 258.85101318 C-46.7954306 262.65087049 -46.80453997 266.44992881 -46.8125 270.25 C-46.8356674 272.84507288 -46.86103735 275.44012709 -46.88867188 278.03515625 C-46.95122825 284.35677866 -46.98639964 290.67809264 -47 297 C-49.41829781 296.04723903 -51.78740689 295.10807145 -54.10546875 293.9296875 C-59.73153567 291.07970988 -64.71150854 289.93052866 -71 291 C-74.91990465 292.99558782 -77.89618028 295.10793352 -80 299 C-80.81974152 301.97478525 -81.44874866 304.96487498 -82 308 C-86.50441939 306.65610276 -90.2794246 304.84328221 -94.3125 302.4375 C-95.36050781 301.81746094 -96.40851563 301.19742187 -97.48828125 300.55859375 C-100 299 -100 299 -101 298 C-101.10973829 296.24985369 -101.15591715 294.49565835 -101.17578125 292.7421875 C-101.41365619 280.23254739 -101.71041392 268.85791923 -106 257 C-106.25056152 256.28408691 -106.50112305 255.56817383 -106.75927734 254.83056641 C-109.96255532 245.74661514 -113.55759425 237.34842228 -118.71484375 229.1875 C-120 227 -120 227 -120 225 C-120.99 225 -121.98 225 -123 225 C-123.21914062 224.39414062 -123.43828125 223.78828125 -123.6640625 223.1640625 C-132.25600816 200.46176706 -148.44739811 185.80141301 -170.19824219 175.77001953 C-172.74774315 174.68043606 -175.35195013 173.81573053 -178 173 C-176.41760759 169.83521519 -173.20234787 168.97357759 -170.125 167.5 C-168.65020542 166.77774673 -167.17628121 166.05371416 -165.703125 165.328125 C-164.54200195 164.75674805 -164.54200195 164.75674805 -163.35742188 164.17382812 C-159.50122407 162.25371638 -155.68590642 160.25820216 -151.875 158.25 C-151.07868164 157.83049072 -150.28236328 157.41098145 -149.46191406 156.97875977 C-145.31098995 154.78186548 -141.17725977 152.55689662 -137.0625 150.29296875 C-135.7955127 149.59699585 -135.7955127 149.59699585 -134.50292969 148.88696289 C-132.73465029 147.91164936 -130.96971724 146.93024664 -129.20800781 145.94311523 C-123.41837053 142.73673985 -117.55082379 139.82891051 -111.546875 137.0546875 C-93.23108206 129.54740855 -93.23108206 129.54740855 -81.1875 115 C-80.53122471 113.01757132 -79.99444832 111.06216645 -79.53637695 109.02514648 C-78.93156869 106.74163052 -78.04944956 104.73923251 -77.0546875 102.59765625 C-74.93161591 97.98193952 -73.37366576 93.30594812 -71.9375 88.4375 C-71.68000977 87.5705249 -71.42251953 86.7035498 -71.15722656 85.81030273 C-68.8789426 77.9395391 -67.29623414 70.08850102 -66 62 C-65.80664062 60.9171875 -65.61328125 59.834375 -65.4140625 58.71875 C-64.60525062 53.98309783 -63.95165838 49.43345663 -64.0078125 44.625 C-64.07047382 33.36524198 -64.07047382 33.36524198 -61.3828125 29.9375 C-58.67990826 28.29144067 -55.93812888 27.18137975 -53 26 C-50.03173511 24.51623069 -47.11402509 22.93913579 -44.1875 21.375 C-43.38280273 20.95524902 -42.57810547 20.53549805 -41.74902344 20.10302734 C-33.64216462 15.87301914 -25.72254871 11.33303127 -17.8046875 6.76171875 C-17.00772461 6.30587402 -16.21076172 5.8500293 -15.38964844 5.38037109 C-13.75749005 4.43756117 -12.13605241 3.47600812 -10.52441406 2.49853516 C-9.73518555 2.03108887 -8.94595703 1.56364258 -8.1328125 1.08203125 C-7.4330127 0.65768799 -6.73321289 0.23334473 -6.01220703 -0.20385742 C-3.48876425 -1.20227369 -2.51099513 -0.96104318 0 0 Z " fill="#F6F9EF" transform="translate(301,126)"/>
<path d="M0 0 C0 14.85 0 29.7 0 45 C-14.35862133 53.21513161 -28.71956588 61.42022875 -43.13964844 69.52685547 C-49.38834183 73.05276047 -55.5690045 76.67549864 -61.66333008 80.46264648 C-65.79158794 83 -65.79158794 83 -68 83 C-68.04487549 83.74870361 -68.08975098 84.49740723 -68.13598633 85.26879883 C-69.63491861 109.64558167 -71.95075058 132.5604211 -80.9375 155.4375 C-81.26129639 156.26628662 -81.58509277 157.09507324 -81.91870117 157.94897461 C-86.54055725 169.329822 -91.99670108 175.38541649 -102.5 181.625 C-103.15097656 182.01945313 -103.80195313 182.41390625 -104.47265625 182.8203125 C-107.89898367 184.86918708 -111.22429135 186.64945806 -115 188 C-115.73686091 172.42310315 -115.73686091 172.42310315 -111.765625 166.8828125 C-109.85425574 165.14568408 -107.90868705 163.44556789 -105.93359375 161.78125 C-100.59744947 157.11190726 -97.91835204 150.3254921 -95 144 C-94.64164062 143.236875 -94.28328125 142.47375 -93.9140625 141.6875 C-89.08226289 130.20599597 -89.74700263 117.43631554 -89.875 105.25 C-89.88505603 103.57031787 -89.89417722 101.89062988 -89.90234375 100.2109375 C-89.92413532 96.14047718 -89.95851837 92.07030532 -90 88 C-115.51480626 91.39816185 -142.30654225 100.6706856 -159.375 120.9375 C-167.59141617 131.80870913 -170.65557546 142.55575465 -172 156 C-179.59 156 -187.18 156 -195 156 C-195 140.49 -195 124.98 -195 109 C-181.17542597 101.15120958 -167.31514205 93.38098925 -153.37817383 85.734375 C-146.84225716 82.14253599 -140.34045779 78.49938549 -133.87155151 74.78878784 C-129.45664012 72.25671206 -125.01921489 69.76999234 -120.5625 67.3125 C-109.66752594 61.28056958 -98.83596379 55.13708769 -88 49 C-84.20879403 46.85335159 -80.41709701 44.70757396 -76.625 42.5625 C-75.68253418 42.02906982 -74.74006836 41.49563965 -73.76904297 40.94604492 C-68.77786207 38.12407876 -63.77941993 35.31597683 -58.76953125 32.52734375 C-48.60475641 26.86664546 -38.49049168 21.15146235 -28.5 15.1875 C-3.0490633 0 -3.0490633 0 0 0 Z " fill="#F7F9EF" transform="translate(290,64)"/>
<path d="M0 0 C8.25296602 4.002771 16.22979649 8.33418941 24.125 13 C25.63513672 13.88558594 25.63513672 13.88558594 27.17578125 14.7890625 C32.71817029 18.04423019 38.23577671 21.3366211 43.72338867 24.68334961 C46.16282162 26.0941659 48.64968792 27.33860646 51.1875 28.5625 C60.33449094 33.05411703 69.11569449 38.2266607 77.96533203 43.27099609 C82.72194212 45.98107756 87.48517173 48.67939979 92.25 51.375 C93.18320068 51.90335449 94.11640137 52.43170898 95.07788086 52.97607422 C102.07008597 56.92780399 109.09080508 60.82687958 116.11828613 64.71539307 C124.62442642 69.42240774 133.08786301 74.17277595 141.43554688 79.15527344 C149.058657 83.67802245 156.82992535 87.93757113 164.59570312 92.20898438 C166.80474194 93.42735117 168.99897736 94.67285641 171.17944336 95.94165039 C174.05466835 97.56920506 176.98004476 98.83224641 180.04125977 100.07202148 C185.26276712 102.35037614 190.24533798 104.59322025 194 109 C196.98733429 116.63605327 195.7870246 125.19602165 195.1875 133.1875 C195.09207771 135.4013296 195.0054054 137.61555467 194.92773438 139.83007812 C194.73539684 145.23779984 194.36519921 150.5903532 194 156 C186.74 156 179.48 156 172 156 C171.67 152.7 171.34 149.4 171 146 C166.84638407 128.4696107 157.03642361 115.61527344 142 106 C127.18197793 96.98307593 107.47470903 88.65735865 90 89 C87.51837279 108.69291268 87.15494058 130.19450683 97 148 C97.43054688 148.82628906 97.86109375 149.65257812 98.3046875 150.50390625 C101.07696059 155.50809412 104.15040921 159.19408566 108.25 163.1875 C114.42466394 169.66765706 114.51896383 175.39252302 115 184 C115.46384588 186.30836518 115.46384588 186.30836518 116 188 C110.15507928 186.38495612 105.2025266 183.52970667 100 180.5 C99.1234375 180.02046875 98.246875 179.5409375 97.34375 179.046875 C87.72692966 173.42740769 83.94906744 165.01321533 80.375 154.8125 C80.08141602 153.99080322 79.78783203 153.16910645 79.48535156 152.32250977 C74.12309323 137.04599868 70.25341529 121.28919135 69.72265625 105.0625 C69.67254395 103.8549707 69.62243164 102.64744141 69.57080078 101.40332031 C69.48340191 99.00801498 69.43734269 96.61076645 69.43701172 94.21386719 C69.3032919 88.10192159 69.3032919 88.10192159 66.15917969 83.13671875 C63.51475935 81.52098331 60.82816113 80.26630669 58 79 C55.83272263 77.81739083 53.67426949 76.61851128 51.5234375 75.40625 C49.75593122 74.43947538 47.98840498 73.47273599 46.2199707 72.50765991 C32.33120603 64.92209155 18.60847357 57.0796717 5 49 C4.08774658 48.66097656 3.17549316 48.32195312 2.2355957 47.97265625 C0 46 0 46 -0.42849731 43.95710754 C-0.58221768 41.17245585 -0.56090465 38.43254699 -0.48828125 35.64453125 C-0.48120651 34.62775803 -0.47413177 33.6109848 -0.46684265 32.56340027 C-0.43882918 29.31235516 -0.37607585 26.06302547 -0.3125 22.8125 C-0.28742621 20.61005089 -0.26461145 18.40757482 -0.24414062 16.20507812 C-0.1889801 10.80279904 -0.10528492 5.40152205 0 0 Z " fill="#F9FAF0" transform="translate(308,64)"/>
<path d="M0 0 C7.59 0 15.18 0 23 0 C23.226875 1.7325 23.45375 3.465 23.6875 5.25 C26.32734999 20.92295552 34.8121158 34.78086674 47.66162109 44.22070312 C57.26653208 50.78953299 67.8097593 55.36368789 78.97875977 58.56762695 C86.54059315 60.82996799 93.29018019 64.68144709 100.1875 68.4375 C101.53272467 69.16326449 102.87826925 69.8884363 104.22412109 70.61303711 C108.15474838 72.73225872 112.07829752 74.8643182 116 77 C117.0194873 77.55461914 118.03897461 78.10923828 119.08935547 78.68066406 C122.64017039 80.6140725 126.18948337 82.5501662 129.7355957 84.4921875 C137.09174427 88.51828371 144.48004143 92.48331326 151.875 96.4375 C161.07241263 101.35670141 170.26318101 106.28780303 179.4375 111.25 C180.43185059 111.78681396 181.42620117 112.32362793 182.45068359 112.87670898 C183.37316895 113.37630127 184.2956543 113.87589355 185.24609375 114.390625 C186.04716553 114.82407227 186.8482373 115.25751953 187.67358398 115.70410156 C188.44130127 116.13174805 189.20901855 116.55939453 190 117 C190.91297852 117.37584229 191.82595703 117.75168457 192.76660156 118.13891602 C195 120 195 120 195.56762695 123.73706055 C195.56683644 125.28717207 195.53864584 126.83742544 195.48828125 128.38671875 C195.47766914 129.61223198 195.47766914 129.61223198 195.46684265 130.86250305 C195.43885512 133.47176737 195.37611306 136.0788846 195.3125 138.6875 C195.28742256 140.45634921 195.26460842 142.22523207 195.24414062 143.99414062 C195.18901471 148.33025424 195.10271575 152.66476315 195 157 C190.82646529 155.71737524 187.1609821 154.14298847 183.3515625 152.015625 C182.27664551 151.41758057 181.20172852 150.81953613 180.09423828 150.20336914 C178.94938965 149.55875732 177.80454102 148.91414551 176.625 148.25 C175.41270869 147.57198569 174.20030453 146.89417309 172.98779297 146.21655273 C164.33158629 141.36659852 155.7610137 136.37674776 147.20800781 131.34716797 C139.33013771 126.73298691 131.3729014 122.27648577 123.375 117.875 C122.76289673 117.53809143 122.15079346 117.20118286 121.5201416 116.85406494 C115.24414909 113.40270544 108.95702254 109.97236363 102.65625 106.56640625 C85.94814796 97.52843416 85.94814796 97.52843416 78.55126953 92.62646484 C76.04896119 91.03121334 73.51360822 89.59239517 70.90234375 88.18359375 C69.93707764 87.66152344 68.97181152 87.13945312 67.97729492 86.6015625 C66.9947876 86.07304687 66.01228027 85.54453125 65 85 C64.08645752 84.50757813 63.17291504 84.01515625 62.23168945 83.5078125 C60.377429 82.50859137 58.52301452 81.50965605 56.66845703 80.51098633 C46.56348365 75.06288917 36.51797076 69.52258023 26.54199219 63.84155273 C17.7307224 58.82535881 8.86582276 53.92545709 0 49 C0 32.83 0 16.66 0 0 Z " fill="#ABD4DE" transform="translate(95,373)"/>
<path d="M0 0 C7.26 0 14.52 0 22 0 C22 16.5 22 33 22 50 C15.07 53.63 8.14 57.26 1 61 C-2.72687253 63.06046201 -6.43540473 65.12720919 -10.125 67.25 C-12.0593849 68.35245946 -13.99430406 69.45398192 -15.9296875 70.5546875 C-16.91678711 71.11639648 -17.90388672 71.67810547 -18.92089844 72.25683594 C-24.34613177 75.32820971 -29.79812825 78.35123983 -35.25 81.375 C-36.37583496 81.99971191 -37.50166992 82.62442383 -38.66162109 83.26806641 C-43.2594707 85.81850254 -47.85827556 88.36721374 -52.45703125 90.91601562 C-65.14666409 97.95064221 -77.82295196 105.00594121 -90.44506836 112.16113281 C-96.34508941 115.50459707 -102.25818124 118.82349971 -108.18041992 122.12744141 C-117.93662012 127.57095852 -127.64641281 133.08542561 -137.3125 138.6875 C-145.33991862 143.33488951 -153.38540019 147.94372793 -161.5 152.4375 C-162.75550659 153.13782349 -162.75550659 153.13782349 -164.03637695 153.85229492 C-165.17852661 154.48035034 -165.17852661 154.48035034 -166.34375 155.12109375 C-167.00568359 155.4864624 -167.66761719 155.85183105 -168.34960938 156.22827148 C-170 157 -170 157 -172 157 C-172 144.79 -172 132.58 -172 120 C-160.35151103 113.63215936 -148.6930651 107.28558986 -137 101 C-128.05313767 96.19010676 -119.12157842 91.35372273 -110.20947266 86.47973633 C-105.38628987 83.84303376 -100.55714296 81.21808014 -95.71875 78.609375 C-93.60414199 77.46879575 -91.48955843 76.32817117 -89.375 75.1875 C-88.35631836 74.63835937 -87.33763672 74.08921875 -86.28808594 73.5234375 C-81.17140736 70.75492781 -76.11342184 67.9305531 -71.125 64.9375 C-64.83132777 61.21098355 -58.40913334 58.64533378 -51.375 56.6875 C-40.16490311 53.41124735 -29.78726273 48.77265095 -21 41 C-20.18015625 40.37996094 -19.3603125 39.75992188 -18.515625 39.12109375 C-6.72228537 29.17733068 -2.10006094 14.70042656 0 0 Z " fill="#ABD5DE" transform="translate(480,373)"/>
<path d="M0 0 C0.63452854 14.57065543 -1.87776949 29.06755401 -11.9765625 40.26171875 C-16.50754053 44.15416127 -21.82805046 47.04569648 -27 50 C-26.67773438 50.71027344 -26.35546875 51.42054688 -26.0234375 52.15234375 C-22.83685666 61.0188225 -25.12525029 70.721603 -29 79 C-31.02052911 82.34432405 -33.32686201 85.15656557 -36 88 C-36.70898438 88.76183594 -37.41796875 89.52367187 -38.1484375 90.30859375 C-52.13203211 104.0831313 -67.82586946 106 -87 106 C-87 91.81 -87 77.62 -87 63 C-70.83 62.67 -54.66 62.34 -38 62 C-40.475 58.04 -40.475 58.04 -43 54 C-45.46503423 44.13986307 -44.58836152 34.59543084 -39.74609375 25.6953125 C-32.78809869 14.43359842 -14.04471198 0 0 0 Z " fill="#F2F6EE" transform="translate(182,175)"/>
<path d="M0 0 C20.73562951 1.59504842 39.97499493 8.91695726 54.30859375 24.51171875 C64.23567225 36.40599813 64.23567225 36.40599813 63.75 43.8125 C63.5025 44.864375 63.255 45.91625 63 47 C63 47.99 63 48.98 63 50 C64.39628766 50.9535623 65.79842167 51.89952782 67.2265625 52.8046875 C77.46580276 59.70602565 82.95773716 71.91563894 85.578125 83.69140625 C86.43819186 90.4365602 86.2170061 97.21655011 86 104 C69.95843369 99.95411823 55.55886426 91.71145551 46.45703125 77.609375 C42.32607123 69.87973553 41.57316113 61.57781957 43 53 C44.65 50.03 46.3 47.06 48 44 C32.16 43.67 16.32 43.34 0 43 C0 28.81 0 14.62 0 0 Z " fill="#BEDDE2" transform="translate(95,311)"/>
<path d="M0 0 C7.491598 5.62743675 13.19319756 12.55244173 14.875 21.9375 C15.95487969 31.77790369 13.77208999 39.55719002 9.125 48.1875 C3.61375195 54.92346984 -2.49218794 59.98815534 -11.125 61.9375 C-22.79819194 63.03497958 -32.12717973 61.96352188 -41.34375 54.5390625 C-48.68902963 47.93475406 -52.59978697 40.72221915 -53.36328125 30.859375 C-53.64022498 19.02367433 -50.75615374 11.7317059 -42.5703125 3.140625 C-30.97624352 -7.30514961 -13.08979542 -8.50344605 0 0 Z " fill="#1E3152" transform="translate(318.125,260.0625)"/>
<path d="M0 0 C0 14.19 0 28.38 0 43 C-15.51 43 -31.02 43 -47 43 C-45.68 45.31 -44.36 47.62 -43 50 C-40.42414572 57.02505712 -40.99472699 67.32838988 -43.4375 74.3125 C-50.54347067 89.37515614 -65.14579878 97.40597103 -80 103 C-81.65533954 103.38566811 -83.31941917 103.74595871 -85 104 C-85.87057819 87.28489868 -83.8938858 72.49943375 -73 59 C-68.9801696 54.70452409 -65.94731094 51.84373615 -60 51 C-60.515625 50.175 -61.03125 49.35 -61.5625 48.5 C-63.31676815 44.22873841 -63.4394806 41.30360178 -62 37 C-53.51178515 20.02357029 -37.89064582 9.48709243 -20.484375 3.15234375 C-13.3471969 0.79195413 -7.55918328 0 0 0 Z " fill="#BFDEE2" transform="translate(502,311)"/>
<path d="M0 0 C11.84675613 2.50604457 21.63582187 7.32492995 31 15 C31.6703125 15.54398438 32.340625 16.08796875 33.03125 16.6484375 C39.16207909 22.16080576 43.38109209 29.3632637 44.4765625 37.5703125 C44.71212742 47.48545393 42.37409886 54.25180228 38 63 C53.84 63 69.68 63 86 63 C86 76.86 86 90.72 86 105 C66.61527799 105 50.10370948 100.95259831 36 87 C27.95811851 77.58734326 25.68312092 69.46813821 25.6015625 57.234375 C26.0305397 53.75208947 26.98595864 51.83457674 29 49 C28.175 48.79375 27.35 48.5875 26.5 48.375 C16.75879632 44.54809856 8.06375311 35.76531254 3.80859375 26.21484375 C0.60356241 17.43584486 -0.44615229 9.31962554 0 0 Z " fill="#F5F8EF" transform="translate(416,176)"/>
<path d="M0 0 C19.8 0 39.6 0 60 0 C58.68 5.61 57.36 11.22 56 17 C55.17453173 21.12734137 54.98743685 23.56224093 55.31640625 27.60546875 C56.12357733 44.41962018 56.12357733 44.41962018 52.22265625 49.15966797 C47.53861227 52.83219718 41.84375174 55.72146398 36 57 C35.01 56.505 35.01 56.505 34 56 C33.62109375 54.07421875 33.62109375 54.07421875 33.4375 51.6875 C33.19507497 48.69429294 32.93813386 45.8647712 32 43 C30.23470405 41.78309467 30.23470405 41.78309467 28 41 C27.29875 40.62875 26.5975 40.2575 25.875 39.875 C15.74582484 36.79220756 10.01238549 40.37889901 0 45 C0 30.15 0 15.3 0 0 Z " fill="#64AED4" transform="translate(344,378)"/>
<path d="M0 0 C19.8 0 39.6 0 60 0 C60 14.85 60 29.7 60 45 C55 43 55 43 52.89453125 41.9296875 C47.26846433 39.07970988 42.28849146 37.93052866 36 39 C32.08009535 40.99558782 29.10381972 43.10793352 27 47 C26.18025848 49.97478525 25.55125134 52.96487498 25 56 C20.49558061 54.65610276 16.7205754 52.84328221 12.6875 50.4375 C11.63949219 49.81746094 10.59148437 49.19742188 9.51171875 48.55859375 C7 47 7 47 6 46 C5.89026171 44.24985369 5.84408285 42.49565835 5.82421875 40.7421875 C5.57939235 28.14753825 4.93516473 16.98585591 1 5 C0.67 3.35 0.34 1.7 0 0 Z " fill="#70B3D8" transform="translate(194,378)"/>
<path d="M0 0 C11.50046511 -0.09272449 23.00084113 -0.16377763 34.50160408 -0.20724869 C39.84202412 -0.2281138 45.1821882 -0.25641212 50.52246094 -0.30175781 C55.67717883 -0.34525346 60.83165068 -0.3691452 65.98653793 -0.37950897 C67.95212552 -0.38689363 69.91769981 -0.4013142 71.88318253 -0.42292023 C74.63872513 -0.45200353 77.39325412 -0.45595393 80.14892578 -0.45410156 C80.95956985 -0.46848267 81.77021393 -0.48286377 82.60542297 -0.49768066 C88.37825575 -0.45575423 91.82492948 0.82492948 96 5 C96.375 7.75 96.375 7.75 96 11 C93.31508856 14.50192373 91.79785211 15.84969269 87.41545105 16.67529297 C86.01612682 16.72295995 84.61571138 16.74354348 83.21557617 16.7421875 C82.44741074 16.76058685 81.6792453 16.77898621 80.88780212 16.79794312 C78.35581172 16.85040733 75.82546123 16.8651586 73.29296875 16.875 C71.5256539 16.89361773 69.75834526 16.91283252 67.99104309 16.93261719 C64.2880768 16.9670413 60.58568635 16.98032686 56.88256836 16.98144531 C52.14992048 16.98652272 47.42163092 17.06511381 42.69010448 17.1625061 C39.03951647 17.22579426 35.38997115 17.23892495 31.73888588 17.23834229 C29.9953122 17.24606081 28.25171828 17.27165196 26.50868797 17.31585693 C12.93065049 17.6302361 12.93065049 17.6302361 8.2081604 13.64257812 C6.13531255 10.8416691 4.53952525 8.12030582 3 5 C2.01036627 3.32715725 1.01365715 1.6583959 0 0 Z " fill="#55A7D2" transform="translate(161,321)"/>
<path d="M0 0 C1.27371712 -0.00021904 1.27371712 -0.00021904 2.57316589 -0.0004425 C5.37595181 0.00025338 8.17867102 0.00803063 10.98144531 0.01586914 C12.92628951 0.01773447 14.87113417 0.01915783 16.815979 0.02015686 C21.9320404 0.02397297 27.04807336 0.03379555 32.16412354 0.04486084 C37.38577896 0.05509441 42.60743899 0.05965865 47.82910156 0.06469727 C58.07260363 0.07541861 68.31608461 0.09248419 78.55957031 0.11352539 C77.91196747 1.15777931 77.91196747 1.15777931 77.25128174 2.22312927 C75.50757242 5.0932009 75.50757242 5.0932009 74.14666748 8.18959045 C72.26676832 11.79180582 70.55362043 14.34755489 67.55957031 17.11352539 C61.56491265 18.77115313 55.8056489 18.4523553 49.63769531 18.17211914 C47.88760919 18.13486044 46.13741127 18.10255468 44.387146 18.07496643 C40.73049547 18.00529057 37.07794802 17.89678641 33.42333984 17.75634766 C28.7407603 17.57658198 24.05965438 17.46226411 19.37456131 17.37281704 C14.89919451 17.28529054 10.4247557 17.16842949 5.95019531 17.04711914 C5.09821815 17.02585905 4.246241 17.00459896 3.36844635 16.98269463 C0.95765344 16.91656922 -1.45146607 16.82997839 -3.86132812 16.73632812 C-4.57308701 16.71891068 -5.28484589 16.70149323 -6.01817322 16.68354797 C-10.05371869 16.50047449 -12.54824281 16.01819552 -15.44042969 13.11352539 C-16.48543077 10.4629237 -16.68604179 7.94663238 -16.44042969 5.11352539 C-12.375872 -0.75750238 -6.53813791 -0.02941488 0 0 Z " fill="#5DA8D0" transform="translate(358.4404296875,320.886474609375)"/>
<path d="M0 0 C5.10906286 2.96892154 8.50368923 7.06987845 11.125 12.3125 C12.28711802 18.76871124 11.38556737 24.95004519 7.6875 30.4375 C2.22938033 35.94119896 -1.54081766 38.56697338 -9.4375 38.875 C-16.26271805 38.79899534 -20.49195597 37.29813172 -25.3125 32.4375 C-29.39459562 27.39491129 -31.16683523 22.42297439 -30.79296875 15.92578125 C-29.61775108 9.83949137 -26.65663431 5.11951247 -21.6875 1.4375 C-15.09158433 -2.47119077 -7.11891997 -3.21588277 0 0 Z " fill="#1F3150" transform="translate(308.3125,194.5625)"/>
<path d="M0 0 C28.38 0 56.76 0 86 0 C82.86672904 3.13327096 79.65057556 5.02854909 75.8125 7.125 C74.37232099 7.92304203 72.9322191 8.72122325 71.4921875 9.51953125 C70.75194336 9.92768066 70.01169922 10.33583008 69.24902344 10.75634766 C65.63406963 12.7553245 62.03630086 14.78463469 58.4375 16.8125 C57.79594971 17.1729541 57.15439941 17.5334082 56.4934082 17.90478516 C55.87554443 18.25202637 55.25768066 18.59926758 54.62109375 18.95703125 C54.02022949 19.28912598 53.41936523 19.6212207 52.80029297 19.96337891 C51.56223834 20.67625929 50.34799535 21.43161844 49.15673828 22.22021484 C47.34765625 23.38671875 47.34765625 23.38671875 44 25 C40.37438811 23.89111164 37.11860325 22.07383889 33.7890625 20.27734375 C32.30212891 19.47538574 32.30212891 19.47538574 30.78515625 18.65722656 C29.22087891 17.80596191 29.22087891 17.80596191 27.625 16.9375 C26.55894531 16.35838867 25.49289062 15.77927734 24.39453125 15.18261719 C18.2049387 11.8015429 12.05474612 8.36760136 6 4.75 C5.37818848 4.3799585 4.75637695 4.00991699 4.11572266 3.62866211 C2.72439218 2.78362214 1.3584581 1.89693067 0 1 C0 0.67 0 0.34 0 0 Z " fill="#69B5D5" transform="translate(256,453)"/>
<path d="M0 0 C1.22103928 0.00007553 2.44207855 0.00015106 3.70011902 0.00022888 C5.67834404 0.00797081 5.67834404 0.00797081 7.6965332 0.01586914 C9.05988005 0.01773459 10.42322756 0.01915789 11.78657532 0.02015686 C15.37209936 0.02397207 18.9575828 0.03379384 22.54309082 0.04486084 C26.20295665 0.05509638 29.86282905 0.05965907 33.52270508 0.06469727 C40.70176003 0.07541701 47.88078155 0.09248146 55.05981445 0.11352539 C54.4668457 0.81864258 53.87387695 1.52375977 53.26293945 2.25024414 C51.11080373 5.04725741 49.46045247 7.81232186 47.80981445 10.92602539 C47.2890332 11.9018457 46.76825195 12.87766602 46.23168945 13.88305664 C45.8449707 14.61911133 45.45825195 15.35516602 45.05981445 16.11352539 C37.44274241 16.21486575 29.82584393 16.284966 22.20825195 16.33325195 C19.61638899 16.35337915 17.02457149 16.38068355 14.43286133 16.4152832 C10.70943997 16.4637504 6.98661846 16.48648355 3.26293945 16.50415039 C1.52213104 16.5351181 1.52213104 16.5351181 -0.25384521 16.56671143 C-1.87507294 16.56716461 -1.87507294 16.56716461 -3.52905273 16.56762695 C-4.95468536 16.58095062 -4.95468536 16.58095062 -6.40911865 16.59454346 C-9.70933062 15.96735277 -10.8901095 14.72321699 -12.94018555 12.11352539 C-13.60373403 8.21517807 -13.27965704 6.6402915 -11.12768555 3.30102539 C-7.65216426 -0.17449589 -4.70283443 -0.00969657 0 0 Z " fill="#5CA5D2" transform="translate(364.940185546875,349.886474609375)"/>
<path d="M0 0 C7.99738263 -0.0927806 15.99453948 -0.16380514 23.99232769 -0.20724869 C27.70626049 -0.22810212 31.41982441 -0.25637755 35.13354492 -0.30175781 C38.71917648 -0.34529746 42.3044538 -0.369154 45.89032936 -0.37950897 C47.25667712 -0.38688594 48.62300602 -0.40129181 49.9892025 -0.42292023 C51.90626405 -0.45205572 53.82368391 -0.45363476 55.7409668 -0.45410156 C56.83128708 -0.46298401 57.92160736 -0.47186646 59.04496765 -0.48101807 C62.70536642 0.11481904 64.35912944 1.4499738 67 4 C68.42041821 6.84083641 68.31452272 8.85477278 68 12 C65.98803048 14.56723021 64.76242379 15.83419791 61.5405426 16.53485107 C60.62296677 16.55009827 59.70539093 16.56534546 58.76000977 16.58105469 C57.71535049 16.6065741 56.67069122 16.63209351 55.59437561 16.65838623 C54.47139572 16.66283752 53.34841583 16.66728882 52.19140625 16.671875 C51.03253403 16.6851886 49.8736618 16.6985022 48.67967224 16.71221924 C46.22946522 16.73246454 43.779148 16.74185351 41.32885742 16.74121094 C37.57872145 16.74996215 33.8332874 16.82259949 30.08398438 16.8984375 C27.70314111 16.91017344 25.32227547 16.9181125 22.94140625 16.921875 C21.82045059 16.95061707 20.69949493 16.97935913 19.54457092 17.00897217 C11.94258089 16.91968699 11.94258089 16.91968699 9.21456909 14.25793457 C7.92647771 12.21642685 6.94427739 10.21755419 6 8 C5.401875 7.05125 4.80375 6.1025 4.1875 5.125 C3 3 3 3 3 1 C2.01 0.67 1.02 0.34 0 0 Z " fill="#54A6D5" transform="translate(178,350)"/>
<path d="M0 0 C19.8 0 39.6 0 60 0 C58.68 5.61 57.36 11.22 56 17 C55.505 16.01 55.505 16.01 55 15 C36.85 15 18.7 15 0 15 C0 10.05 0 5.1 0 0 Z " fill="#5DAAD6" transform="translate(344,378)"/>
<path d="M0 0 C18.15 0 36.3 0 55 0 C54.67 4.29 54.34 8.58 54 13 C36.18 13 18.36 13 0 13 C0 8.71 0 4.42 0 0 Z " fill="#EBF6EF" transform="translate(344,393)"/>
<path d="M0 0 C17.82 0 35.64 0 54 0 C54 3.96 54 7.92 54 12 C36.51 12 19.02 12 1 12 C0.67 8.04 0.34 4.08 0 0 Z " fill="#EBF7EE" transform="translate(199,393)"/>
<path d="M0 0 C18.81 0 37.62 0 57 0 C57 3.63 57 7.26 57 11 C38.85 11 20.7 11 2 11 C0 6 0 6 0 0 Z " fill="#5EACD7" transform="translate(196,380)"/>
<path d="M0 0 C4.40830916 2.16407904 7.12843553 4.42506462 9 9 C9.78683558 14.33299672 9.40333256 16.97630065 6.25 21.375 C3.56619899 24.77719219 1.16007127 26.66768134 -3.18359375 27.3359375 C-7.08098536 27.40348328 -9.41993401 27.32786338 -12.875 25.375 C-16.84864918 20.93386268 -18.59337428 16.8820119 -18.35546875 10.95703125 C-17.61058222 6.85606257 -15.19361327 4.06663313 -12.1640625 1.359375 C-8.34679574 -1.03847488 -4.3502589 -0.61852022 0 0 Z " fill="#1E355B" transform="translate(255,219)"/>
<path d="M0 0 C3.25617858 1.61845562 5.22833816 3.94773385 7.375 6.875 C8.69126782 11.3503106 8.42425731 14.9494581 6.6875 19.25 C4.06638744 23.52144269 1.94565459 25.70982924 -3 27 C-6.84718719 27.1958568 -10.46534046 27.16856004 -13.62109375 24.765625 C-16.98223545 20.89582387 -18.73349908 17.08759052 -19.375 12.0625 C-18.80782416 7.43056398 -16.60682374 4.46422683 -13.1953125 1.35546875 C-9.12167223 -1.15975042 -4.608955 -0.72035766 0 0 Z " fill="#1C3357" transform="translate(352,219)"/>
<path d="M0 0 C4.38410756 2.19205378 7.13092657 4.43115383 9 9 C9.56948976 12.89151335 9.34571601 16.04928096 8 19.75 C4.43401476 23.7617334 0.13314246 25.65869721 -5.125 26.5 C-9.84523843 25.67908897 -12.79492738 23.40591806 -15.875 19.8125 C-17.47936151 15.80159623 -17.68251468 12.26009163 -17 8 C-13.14361114 0.42495046 -8.09733223 -1.13868734 0 0 Z " fill="#1A3052" transform="translate(303,151)"/>
<path d="M0 0 C3.66195861 1.59215592 6.20204902 3.40409804 8 7 C8.73311631 11.68479205 8.44216999 15.08164694 6.375 19.375 C2.97464693 23.13328497 0.0083757 24.70711188 -5 25.4375 C-8.88576111 24.8708265 -10.97792261 23.47260877 -14 21 C-16.7412348 16.60279743 -16.79952871 12.02673992 -16 7 C-12.24941344 0.04259222 -7.28820968 -0.70734791 0 0 Z " fill="#1E3354" transform="translate(236,268)"/>
<path d="M0 0 C3.49996383 2.04164557 5.80555258 4.09089936 7 8 C7.42543885 13.36052948 7.47662684 16.65421645 4 21 C0.04360118 24.58958039 -3.19299466 24.55693672 -8.36328125 24.42578125 C-11 24 -11 24 -14.125 21.6875 C-17.34170933 17.0768833 -17.85907445 12.48126849 -17 7 C-12.99982561 -0.20926952 -7.63520816 -0.87774834 0 0 Z " fill="#1A2F54" transform="translate(371,268)"/>
<path d="M0 0 C11.50046511 -0.09272449 23.00084113 -0.16377763 34.50160408 -0.20724869 C39.84202412 -0.2281138 45.1821882 -0.25641212 50.52246094 -0.30175781 C55.67717883 -0.34525346 60.83165068 -0.3691452 65.98653793 -0.37950897 C67.95212552 -0.38689363 69.91769981 -0.4013142 71.88318253 -0.42292023 C74.63872513 -0.45200353 77.39325412 -0.45595393 80.14892578 -0.45410156 C80.95956985 -0.46848267 81.77021393 -0.48286377 82.60542297 -0.49768066 C88.37825575 -0.45575423 91.82492948 0.82492948 96 5 C96.375 7.75 96.375 7.75 96 11 C93.29428931 14.55740186 91.82142948 15.86425201 87.36161804 16.60127258 C85.93731498 16.61566907 84.51256729 16.60268786 83.08862305 16.56762695 C81.91709938 16.56872215 81.91709938 16.56872215 80.72190857 16.56983948 C78.15112844 16.56636758 75.58218065 16.52752813 73.01171875 16.48828125 C71.22525523 16.47895164 69.43877888 16.47183622 67.65229797 16.46684265 C62.95840922 16.44778438 58.26529843 16.39869395 53.57171631 16.34332275 C48.77903771 16.29210484 43.98623297 16.2693232 39.19335938 16.24414062 C29.79523177 16.19057386 20.39768067 16.10527541 11 16 C13.82843447 13.17156553 16.55223151 13.70013151 20.33959961 13.69702148 C21.09585129 13.68858215 21.85210297 13.68014282 22.63127136 13.67144775 C25.13830165 13.64559799 27.64521405 13.63351214 30.15234375 13.62109375 C31.89108724 13.60492521 33.6298216 13.5877459 35.36854553 13.56959534 C39.95242087 13.52383466 44.53630831 13.48907096 49.12030029 13.45739746 C56.45464984 13.40559605 63.78886477 13.34039615 71.12304878 13.26918221 C73.68837937 13.2463295 76.25369292 13.23006901 78.81907654 13.21446228 C80.38972153 13.20105484 81.96036476 13.18743997 83.53100586 13.17358398 C84.60415039 13.16966393 84.60415039 13.16966393 85.69897461 13.16566467 C88.73982505 13.13376186 91.09081972 12.96972676 94 12 C93.73606499 8.56769552 93.73606499 8.56769552 93 5 C89.13637408 2.42424939 85.96658821 2.73375814 81.48950195 2.77294922 C80.62099609 2.77265717 79.75249023 2.77236511 78.85766602 2.77206421 C75.98443644 2.77345853 73.11146558 2.78902456 70.23828125 2.8046875 C68.24716839 2.80841727 66.2560537 2.81126441 64.26493835 2.81326294 C59.02223653 2.82090225 53.77964538 2.84055334 48.5369873 2.8626709 C43.18808489 2.88312288 37.83916461 2.89226327 32.49023438 2.90234375 C21.99344094 2.92379892 11.49672967 2.9579385 1 3 C0.67 2.01 0.34 1.02 0 0 Z " fill="#70AAC5" transform="translate(161,321)"/>
<path d="M0 0 C14.52 0 29.04 0 44 0 C44 0.99 44 1.98 44 3 C40.7875053 4.90472584 37.55290308 6.7682154 34.3125 8.625 C32.94448242 9.43710937 32.94448242 9.43710937 31.54882812 10.265625 C30.66259766 10.76835937 29.77636719 11.27109375 28.86328125 11.7890625 C27.64572144 12.49603271 27.64572144 12.49603271 26.40356445 13.21728516 C24 14 24 14 21.47045898 13.28271484 C20.65520752 12.85941895 19.83995605 12.43612305 19 12 C18.27264648 11.63261719 17.54529297 11.26523437 16.79589844 10.88671875 C14.44404645 9.59682405 12.09480489 8.30266939 9.75 7 C8.92242187 6.54882812 8.09484375 6.09765625 7.2421875 5.6328125 C6.45585937 5.19710938 5.66953125 4.76140625 4.859375 4.3125 C4.14233398 3.91675781 3.42529297 3.52101563 2.68652344 3.11328125 C1 2 1 2 0 0 Z " fill="#B0D7E6" transform="translate(276,464)"/>
<path d="M0 0 C3.5060303 0.86943897 4.94966563 2.56083702 6.9375 5.48046875 C7.62901325 9.78321784 7.45307405 11.68992187 5.0625 15.35546875 C2.3501761 18.06779265 1.47508847 18.41960968 -2.375 18.85546875 C-6.0625 18.48046875 -6.0625 18.48046875 -9 16.48046875 C-11.29297397 13.14523389 -11.82423735 11.3803982 -11.5390625 7.41796875 C-10.07434113 1.46303597 -5.59166036 -0.39183984 0 0 Z " fill="#6AB6DE" transform="translate(301.0625,366.51953125)"/>
<path d="M0 0 C7.99738263 -0.0927806 15.99453948 -0.16380514 23.99232769 -0.20724869 C27.70626049 -0.22810212 31.41982441 -0.25637755 35.13354492 -0.30175781 C38.71917648 -0.34529746 42.3044538 -0.369154 45.89032936 -0.37950897 C47.25667712 -0.38688594 48.62300602 -0.40129181 49.9892025 -0.42292023 C51.90626405 -0.45205572 53.82368391 -0.45363476 55.7409668 -0.45410156 C56.83128708 -0.46298401 57.92160736 -0.47186646 59.04496765 -0.48101807 C62.70536642 0.11481904 64.35912944 1.4499738 67 4 C68.42041821 6.84083641 68.31452272 8.85477278 68 12 C65.97949246 14.58859846 64.77610045 15.84312843 61.52035522 16.50120544 C60.59373077 16.50137161 59.66710632 16.50153778 58.71240234 16.50170898 C57.65806 16.51108994 56.60371765 16.52047089 55.51742554 16.53013611 C54.38503448 16.51890213 53.25264343 16.50766815 52.0859375 16.49609375 C50.91995026 16.49754898 49.75396301 16.49900421 48.55264282 16.50050354 C46.08975727 16.49884423 43.62686139 16.48727958 41.1640625 16.46655273 C37.38236788 16.43755649 33.6020708 16.44595231 29.8203125 16.45898438 C27.42968065 16.4527485 25.03905324 16.44435875 22.6484375 16.43359375 C21.51199799 16.43652939 20.37555847 16.43946503 19.2046814 16.44248962 C18.15664337 16.42980545 17.10860535 16.41712128 16.02880859 16.40405273 C15.10377533 16.39864975 14.17874207 16.39324677 13.22567749 16.38768005 C12.12396713 16.19577843 12.12396713 16.19577843 11 16 C10.34 15.01 9.68 14.02 9 13 C9.66 12.67 10.32 12.34 11 12 C11 12.66 11 13.32 11 14 C37.73 13.505 37.73 13.505 65 13 C65 10.03 65 7.06 65 4 C61.82160309 2.94053436 59.58154652 2.87935704 56.2434082 2.88647461 C55.06241043 2.88655014 53.88141266 2.88662567 52.66462708 2.88670349 C50.75202339 2.89444542 50.75202339 2.89444542 48.80078125 2.90234375 C46.84279854 2.90446617 46.84279854 2.90446617 44.84526062 2.90663147 C41.37810344 2.9104462 37.91098826 2.92026756 34.44384766 2.93133545 C30.90462818 2.94157202 27.3654019 2.9461339 23.82617188 2.95117188 C16.88409735 2.96189077 9.94205069 2.97895466 3 3 C3 2.34 3 1.68 3 1 C2.01 0.67 1.02 0.34 0 0 Z " fill="#74AFCE" transform="translate(178,350)"/>
<path d="M0 0 C3.74093467 2.07829704 4.79149259 3.32541719 6.0625 7.4375 C5.98713481 11.73331579 5.03450339 13.05219671 2 16 C-0.88861709 17.44430855 -2.79647701 17.37688506 -6 17 C-8.87459336 15.00028288 -10.62907801 13.51060972 -11.484375 10.02734375 C-11.73645855 6.28110213 -11.30563428 4.35956975 -8.875 1.5 C-5.48749667 -0.26739304 -3.7664742 -0.6277457 0 0 Z " fill="#1E324F" transform="translate(421,295)"/>
<path d="M0 0 C3.74093467 2.07829704 4.79149259 3.32541719 6.0625 7.4375 C5.98713481 11.73331579 5.03450339 13.05219671 2 16 C-0.80915474 17.40457737 -2.88810534 17.24895157 -6 17 C-8.3125 16.0625 -8.3125 16.0625 -10 14 C-10.9674426 10.93839811 -11.3249639 8.19921354 -11 5 C-7.95698592 0.48158515 -5.40775723 -1.01395448 0 0 Z " fill="#1A2E51" transform="translate(182,295)"/>
<path d="M0 0 C7.59 0 15.18 0 23 0 C23 1.65 23 3.3 23 5 C20.04894616 6.7004792 17.08809878 8.38311093 14.125 10.0625 C13.28324219 10.54783203 12.44148438 11.03316406 11.57421875 11.53320312 C10.76855469 11.98759766 9.96289062 12.44199219 9.1328125 12.91015625 C8.38918457 13.33433838 7.64555664 13.75852051 6.87939453 14.19555664 C5.94909424 14.5937561 5.94909424 14.5937561 5 15 C4.34 14.67 3.68 14.34 3 14 C2.65625 12.109375 2.65625 12.109375 2.5 9.75 C2.23708035 5.83249715 1.5577137 3.89428425 0 0 Z " fill="#B3DDE7" transform="translate(375,420)"/>
<path d="M0 0 C7.59 0 15.18 0 23 0 C22.34 1.65 21.68 3.3 21 5 C20.58911437 6.59535222 20.21195834 8.19991364 19.875 9.8125 C19.70742187 10.60269531 19.53984375 11.39289063 19.3671875 12.20703125 C19.24601562 12.79871094 19.12484375 13.39039063 19 14 C14.58842192 12.6573458 10.70755622 10.9453398 6.6875 8.6875 C5.63949219 8.11386719 4.59148437 7.54023438 3.51171875 6.94921875 C1 5 1 5 0 0 Z " fill="#B2D7E2" transform="translate(200,420)"/>
<path d="M0 0 C19.8 0 39.6 0 60 0 C59.67 1.65 59.34 3.3 59 5 C58.34 4.67 57.68 4.34 57 4 C57 3.34 57 2.68 57 2 C38.52 2 20.04 2 1 2 C1 5.96 1 9.92 1 14 C19.15 14 37.3 14 56 14 C55.67 14.99 55.34 15.98 55 17 C55 16.34 55 15.68 55 15 C36.85 15 18.7 15 0 15 C0 10.05 0 5.1 0 0 Z " fill="#7FB2CE" transform="translate(344,378)"/>
<path d="M0 0 C19.8 0 39.6 0 60 0 C60 4.62 60 9.24 60 14 C41.85 14 23.7 14 5 14 C4.67 14.66 4.34 15.32 4 16 C4 15.01 4 14.02 4 13 C22.15 13 40.3 13 59 13 C59 9.37 59 5.74 59 2 C40.19 2 21.38 2 2 2 C1.67 2.99 1.34 3.98 1 5 C0.67 3.35 0.34 1.7 0 0 Z " fill="#73ACC9" transform="translate(194,378)"/>
<path d="M0 0 C28.38 0 56.76 0 86 0 C83.43833199 2.56166801 82.44696024 3.44554406 79.3125 4.6875 C78.219375 5.120625 77.12625 5.55375 76 6 C75.01 4.515 75.01 4.515 74 3 C70.84736482 2.51995562 70.84736482 2.51995562 67.07177734 2.56762695 C66.00332329 2.55233948 66.00332329 2.55233948 64.9132843 2.53674316 C62.55408988 2.50649972 60.19530068 2.49733033 57.8359375 2.48828125 C56.20210407 2.4714429 54.56828366 2.45329381 52.93447876 2.43388367 C48.63057524 2.38628555 44.3267245 2.35653993 40.02264404 2.33044434 C35.63217746 2.30068807 31.24189292 2.25414093 26.8515625 2.20898438 C18.23446423 2.12283976 9.61734957 2.05554443 1 2 C0.67 1.34 0.34 0.68 0 0 Z " fill="#6FACCE" transform="translate(256,453)"/>
<path d="M0 0 C0 3.11227195 -0.45627049 5.94152152 -1 9 C-0.01 9.33 0.98 9.66 2 10 C2 10.66 2 11.32 2 12 C27.41 12 52.82 12 79 12 C79.495 12.99 79.495 12.99 80 14 C69.89919026 14.06949231 59.79843734 14.12280737 49.69743729 14.15543652 C45.00719004 14.17109642 40.31710628 14.19234061 35.62695312 14.22631836 C31.10118756 14.25890024 26.5755793 14.27685057 22.04970551 14.28463173 C20.32251255 14.29017735 18.59532825 14.30100654 16.86820221 14.31719017 C14.45003107 14.33894913 12.03251101 14.34196761 9.61425781 14.34057617 C8.89928131 14.351362 8.18430481 14.36214783 7.44766235 14.3732605 C4.34136051 14.35390372 2.28621467 14.16483768 -0.43121338 12.59980774 C-2.79924439 10.18495139 -2.84144828 8.135916 -3.1171875 4.875 C-3 3 -3 3 -1.5625 1 C-1.046875 0.67 -0.53125 0.34 0 0 Z " fill="#6AA5C4" transform="translate(345,323)"/>
<path d="M0 0 C1.58962555 0.01061211 1.58962555 0.01061211 3.21136475 0.0214386 C6.59475416 0.04941789 9.97648616 0.11216604 13.359375 0.17578125 C15.65362193 0.20085941 17.9478948 0.22367341 20.2421875 0.24414062 C25.86514842 0.299256 31.48714331 0.38291816 37.109375 0.48828125 C37.109375 0.81828125 37.109375 1.14828125 37.109375 1.48828125 C36.55449402 1.48970627 35.99961304 1.49113129 35.42791748 1.49259949 C29.65245127 1.51228639 23.87804342 1.56653725 18.10302734 1.64086914 C15.94783115 1.66406597 13.79252132 1.67844879 11.63720703 1.68383789 C8.53866627 1.69311496 5.44191693 1.73407912 2.34375 1.78125 C1.38007507 1.77731735 0.41640015 1.7733847 -0.57647705 1.76933289 C-6.05885548 1.82014787 -6.05885548 1.82014787 -10.46777344 4.8449707 C-11.98221792 7.47771751 -11.98221792 7.47771751 -12.890625 10.48828125 C-12.230625 10.81828125 -11.570625 11.14828125 -10.890625 11.48828125 C-10.890625 11.81828125 -10.890625 12.14828125 -10.890625 12.48828125 C-3.960625 12.98328125 -3.960625 12.98328125 3.109375 13.48828125 C3.109375 13.81828125 3.109375 14.14828125 3.109375 14.48828125 C0.48376391 14.56902328 -2.13938176 14.62864355 -4.765625 14.67578125 C-5.88517578 14.71348633 -5.88517578 14.71348633 -7.02734375 14.75195312 C-9.1953125 14.78125 -9.1953125 14.78125 -12.890625 14.48828125 C-15.23231264 10.97574979 -15.38686177 9.62358769 -14.890625 5.48828125 C-11.57415828 -1.09339771 -6.53771445 -0.16391301 0 0 Z " fill="#619EBB" transform="translate(366.890625,350.51171875)"/>
<path d="M0 0 C25.74 0 51.48 0 78 0 C77.10429689 4.47851553 76.74999027 5.77175056 74 9 C73.505 7.02 73.505 7.02 73 5 C73.66 5 74.32 5 75 5 C75.33 3.68 75.66 2.36 76 1 C50.92 1 25.84 1 0 1 C0 0.67 0 0.34 0 0 Z " fill="#DDFAFE" transform="translate(347,337)"/>
<path d="M0 0 C17.82 0 35.64 0 54 0 C54 5.61 54 11.22 54 17 C52.68 16.34 51.36 15.68 50 15 C50.99 14.67 51.98 14.34 53 14 C53 9.71 53 5.42 53 1 C35.84 1 18.68 1 1 1 C1 3.97 1 6.94 1 10 C0.67 10 0.34 10 0 10 C0 6.7 0 3.4 0 0 Z " fill="#69A4C6" transform="translate(200,406)"/>
<path d="M0 0 C3.875 0.875 3.875 0.875 5 2 C5.23828125 3.92578125 5.23828125 3.92578125 5.3125 6.3125 C5.36857422 7.48232422 5.36857422 7.48232422 5.42578125 8.67578125 C4.83652574 11.89235947 3.50207149 12.94641239 1 15 C-1.41717529 15.48101807 -1.41717529 15.48101807 -4.13574219 15.45410156 C-5.66687653 15.45364838 -5.66687653 15.45364838 -7.22894287 15.45318604 C-8.32386047 15.43254089 -9.41877808 15.41189575 -10.546875 15.390625 C-11.6732135 15.38496521 -12.799552 15.37930542 -13.96002197 15.37347412 C-17.55711382 15.35108545 -21.15320926 15.30088213 -24.75 15.25 C-27.1887877 15.22993833 -29.62759101 15.21168698 -32.06640625 15.1953125 C-38.04461074 15.15121244 -44.02223419 15.08427463 -50 15 C-50 15.99 -50 16.98 -50 18 C-50.66 18 -51.32 18 -52 18 C-52.33 16.68 -52.66 15.36 -53 14 C-52.0140107 13.99120064 -52.0140107 13.99120064 -51.00810242 13.98222351 C-44.17869902 13.91838697 -37.34977113 13.83399271 -30.52075195 13.73754883 C-27.97068544 13.7042539 -25.42054441 13.67623637 -22.87036133 13.65356445 C-19.20882351 13.620103 -15.54797136 13.56779019 -11.88671875 13.51171875 C-10.7428923 13.50532883 -9.59906586 13.4989389 -8.420578 13.49235535 C-7.35970474 13.47256119 -6.29883148 13.45276703 -5.20581055 13.43237305 C-4.27093307 13.42126999 -3.3360556 13.41016693 -2.37284851 13.39872742 C0.43646519 12.9266575 1.34466568 12.28882116 3 10 C3.45185216 6.46049143 3.42109443 4.66673285 1.5 1.625 C1.005 1.08875 0.51 0.5525 0 0 Z " fill="#E3F9FB" transform="translate(242,352)"/>
<path d="M0 0 C-1.64264315 2.0072669 -2.49802776 2.92309982 -5.10710144 3.32279968 C-5.91762466 3.29837296 -6.72814789 3.27394623 -7.56323242 3.2487793 C-8.48396042 3.22853195 -9.40468842 3.20828461 -10.35331726 3.18742371 C-11.34402725 3.15006607 -12.33473724 3.11270844 -13.35546875 3.07421875 C-14.37224197 3.04777786 -15.3890152 3.02133698 -16.43659973 2.99409485 C-19.68749165 2.90625062 -22.93727678 2.79712817 -26.1875 2.6875 C-28.38993416 2.62424978 -30.59240854 2.56238345 -32.79492188 2.50195312 C-38.19718396 2.35069695 -43.59868972 2.18196149 -49 2 C-49 1.67 -49 1.34 -49 1 C-32.66077544 0.36031357 -16.35276131 -0.17133277 0 0 Z " fill="#183049" transform="translate(144,354)"/>
<path d="M0 0 C14.52 0 29.04 0 44 0 C44 0.33 44 0.66 44 1 C25.19 1.495 25.19 1.495 6 2 C6 2.66 6 3.32 6 4 C1.125 2.25 1.125 2.25 0 0 Z " fill="#91C6DC" transform="translate(276,464)"/>
<path d="M0 0 C1.875 0.6875 1.875 0.6875 2.875 1.6875 C3 4.1875 3 4.1875 2.875 6.6875 C1.875 7.6875 1.875 7.6875 -1.125 7.8125 C-4.125 7.6875 -4.125 7.6875 -5.125 6.6875 C-5.375 4.25 -5.375 4.25 -5.125 1.6875 C-2.125 -0.3125 -2.125 -0.3125 0 0 Z " fill="#70B1CC" transform="translate(300.125,284.3125)"/>
<path d="M0 0 C2.625 0.375 2.625 0.375 5 1 C5.625 3.375 5.625 3.375 6 6 C5.34 6.66 4.68 7.32 4 8 C1.375 7.625 1.375 7.625 -1 7 C-1.625 4.625 -1.625 4.625 -2 2 C-1.34 1.34 -0.68 0.68 0 0 Z " fill="#65A2DC" transform="translate(297,411)"/>
<path d="M0 0 C0.66 0.33 1.32 0.66 2 1 C1.0409375 2.1446875 1.0409375 2.1446875 0.0625 3.3125 C-2.14232781 5.88246713 -2.14232781 5.88246713 -3 9 C-2.34 9.33 -1.68 9.66 -1 10 C-1 10.33 -1 10.66 -1 11 C5.93 11.495 5.93 11.495 13 12 C13 12.33 13 12.66 13 13 C10.37438891 13.08074203 7.75124324 13.1403623 5.125 13.1875 C4.00544922 13.22520508 4.00544922 13.22520508 2.86328125 13.26367188 C0.6953125 13.29296875 0.6953125 13.29296875 -3 13 C-5.33043558 9.50434664 -5.58763244 8.1134271 -5 4 C-2.5 1.625 -2.5 1.625 0 0 Z " fill="#579AC1" transform="translate(357,352)"/>
<path d="M0 0 C9.57 0 19.14 0 29 0 C28.10429689 4.47851553 27.74999027 5.77175056 25 9 C24.67 7.68 24.34 6.36 24 5 C24.66 5 25.32 5 26 5 C26.33 3.68 26.66 2.36 27 1 C18.09 1 9.18 1 0 1 C0 0.67 0 0.34 0 0 Z " fill="#D3EDF5" transform="translate(396,337)"/>
<path d="M0 0 C-0.99 1.98 -1.98 3.96 -3 6 C-3.66 6 -4.32 6 -5 6 C-5 4.68 -5 3.36 -5 2 C-10.94 2 -16.88 2 -23 2 C-23 1.67 -23 1.34 -23 1 C-15.31068715 -0.06059488 -7.75493514 -0.09928082 0 0 Z " fill="#62A6CC" transform="translate(418,351)"/>
<path d="M0 0 C0.99 0.33 1.98 0.66 3 1 C1.625 2.5 1.625 2.5 0 4 C-0.66 4 -1.32 4 -2 4 C-2.33 4.66 -2.66 5.32 -3 6 C-3.5775 6.268125 -4.155 6.53625 -4.75 6.8125 C-7.72207612 8.38109573 -9.70251569 10.57487767 -12 13 C-11.48389962 8.97079529 -9.58326142 7.38860534 -6.5625 4.8125 C-5.75941406 4.11769531 -4.95632813 3.42289062 -4.12890625 2.70703125 C-2 1 -2 1 0 0 Z " fill="#1A2B46" transform="translate(274,342)"/>
<path d="M0 0 C0.33 0 0.66 0 1 0 C1.3910939 9.97289448 1.3910939 9.97289448 -1 14 C-1.99 14.33 -2.98 14.66 -4 15 C-3.52229477 13.06213915 -3.04278429 11.12472326 -2.5625 9.1875 C-2.29566406 8.10855469 -2.02882812 7.02960938 -1.75390625 5.91796875 C-1.23922588 3.9259157 -0.65062825 1.95188476 0 0 Z " fill="#C5E2E7" transform="translate(231,207)"/>
<path d="M0 0 C-1.32 0.99 -2.64 1.98 -4 3 C-4.33 2.67 -4.66 2.34 -5 2 C-6.55948542 1.84313751 -8.12542668 1.74923361 -9.69140625 1.68359375 C-10.63564453 1.64169922 -11.57988281 1.59980469 -12.55273438 1.55664062 C-13.54595703 1.51732422 -14.53917969 1.47800781 -15.5625 1.4375 C-16.55958984 1.39431641 -17.55667969 1.35113281 -18.58398438 1.30664062 C-21.0558415 1.20019702 -23.5278031 1.09818072 -26 1 C-26 0.67 -26 0.34 -26 0 C-22.22958744 -0.19670554 -18.45866237 -0.38078426 -14.6875 -0.5625 C-13.61564453 -0.61857422 -12.54378906 -0.67464844 -11.43945312 -0.73242188 C-9.89741211 -0.80493164 -9.89741211 -0.80493164 -8.32421875 -0.87890625 C-7.37635498 -0.9260376 -6.42849121 -0.97316895 -5.4519043 -1.02172852 C-3 -1 -3 -1 0 0 Z " fill="#6FAECB" transform="translate(325,463)"/>
<path d="M0 0 C1.9375 0.5625 1.9375 0.5625 4 2 C5.42682927 8.14634146 5.42682927 8.14634146 4 11 C3.01 10.67 2.02 10.34 1 10 C1.66 9.67 2.32 9.34 3 9 C3 7.68 3 6.36 3 5 C2.01 5.33 1.02 5.66 0 6 C0 4.02 0 2.04 0 0 Z " fill="#263353" transform="translate(183,297)"/>
<path d="M0 0 C0.33 0 0.66 0 1 0 C1.66 5.28 2.32 10.56 3 16 C1.02 16.99 1.02 16.99 -1 18 C-0.505 9.09 -0.505 9.09 0 0 Z " fill="#D9E1E2" transform="translate(176,234)"/>
<path d="M0 0 C-0.3125 1.875 -0.3125 1.875 -1 4 C-4.63304928 6.42203285 -6.73839043 6 -11 6 C-3.8 0 -3.8 0 0 0 Z " fill="#35475F" transform="translate(98,137)"/>
<path d="M0 0 C0.66 0 1.32 0 2 0 C2.05402274 2.10388569 2.09280256 4.20816714 2.125 6.3125 C2.14820313 7.48425781 2.17140625 8.65601563 2.1953125 9.86328125 C2 13 2 13 0 16 C-0.1958009 14.08416353 -0.38132214 12.16727461 -0.5625 10.25 C-0.66691406 9.18265625 -0.77132812 8.1153125 -0.87890625 7.015625 C-0.98560074 4.35858796 -0.81930395 2.50039428 0 0 Z " fill="#DCE2E4" transform="translate(180,175)"/>
<path d="M0 0 C4.875 2.75 4.875 2.75 6 5 C6.3125 7.9375 6.3125 7.9375 6 11 C4 12.875 4 12.875 2 14 C1.67 13.34 1.34 12.68 1 12 C1.66 12 2.32 12 3 12 C3 9.03 3 6.06 3 3 C2.01 2.67 1.02 2.34 0 2 C0 1.34 0 0.68 0 0 Z " fill="#68A3C5" transform="translate(240,351)"/>
<path d="M0 0 C4.875 2.875 4.875 2.875 6 4 C6.30172745 7.39443386 6.35204436 9.39192338 4.625 12.375 C4.08875 12.91125 3.5525 13.4475 3 14 C2.34 14 1.68 14 1 14 C1.33 13.01 1.66 12.02 2 11 C2.66 11 3.32 11 4 11 C3.73606499 7.56769552 3.73606499 7.56769552 3 4 C2.01 3.34 1.02 2.68 0 2 C0 1.34 0 0.68 0 0 Z " fill="#6EA5BE" transform="translate(251,322)"/>
<path d="M0 0 C0.66 0.33 1.32 0.66 2 1 C-0.64 5.95 -3.28 10.9 -6 16 C-7 13 -7 13 -6.328125 11.1328125 C-5.79445312 10.13894531 -5.79445312 10.13894531 -5.25 9.125 C-4.87875 8.42632812 -4.5075 7.72765625 -4.125 7.0078125 C-2.79851082 4.64039779 -1.43833694 2.3013391 0 0 Z " fill="#2A3A53" transform="translate(194,207)"/>
<path d="M0 0 C0 0.66 0 1.32 0 2 C-1.97946592 3.36363208 -3.9819245 4.69418644 -6 6 C-7.79394446 7.62351109 -7.79394446 7.62351109 -9 9 C-9 8.34 -9 7.68 -9 7 C-9.66 7 -10.32 7 -11 7 C-11 6.34 -11 5.68 -11 5 C-9.54462432 4.16151196 -8.08559627 3.32936066 -6.625 2.5 C-5.81289062 2.0359375 -5.00078125 1.571875 -4.1640625 1.09375 C-2 0 -2 0 0 0 Z " fill="#2F425B" transform="translate(132,118)"/>
<path d="M0 0 C7.92 0 15.84 0 24 0 C24 0.33 24 0.66 24 1 C20.72922836 1.16789217 17.45837336 1.33410238 14.1875 1.5 C13.25873047 1.54769531 12.32996094 1.59539062 11.37304688 1.64453125 C10.48037109 1.68964844 9.58769531 1.73476563 8.66796875 1.78125 C7.84578857 1.82314453 7.0236084 1.86503906 6.17651367 1.90820312 C4.45227071 1.98092498 2.72577585 2 1 2 C0.67 1.34 0.34 0.68 0 0 Z " fill="#62A4C7" transform="translate(372,418)"/>
<path d="M0 0 C0 3.11227195 -0.45627049 5.94152152 -1 9 C-0.01 9.33 0.98 9.66 2 10 C1.67 10.99 1.34 11.98 1 13 C-2 11 -2 11 -2.6171875 9.16015625 C-3.31964323 3.44472101 -3.31964323 3.44472101 -1.5625 1 C-1.046875 0.67 -0.53125 0.34 0 0 Z " fill="#6BA7BF" transform="translate(345,323)"/>
<path d="M0 0 C0 0.99 0 1.98 0 3 C-0.33 3.33 -0.66 3.66 -1 4 C-0.34 4.66 0.32 5.32 1 6 C-2.76624671 7.25541557 -4.37188934 6.37061958 -8 5 C-6.37633534 1.75267068 -3.24612161 1.29844864 0 0 Z " fill="#E0E7EC" transform="translate(131,294)"/>
<path d="M0 0 C2.475 0.495 2.475 0.495 5 1 C5 1.66 5 2.32 5 3 C6.98 3 8.96 3 11 3 C10.67 3.66 10.34 4.32 10 5 C6.63295715 5.2295711 4.58629732 5.33943529 1.625 3.625 C1.08875 3.08875 0.5525 2.5525 0 2 C0 1.34 0 0.68 0 0 Z " fill="#2C384F" transform="translate(411,307)"/>
<path d="M0 0 C0 0.99 0 1.98 0 3 C-3.33303391 5.49977543 -4.73303602 6 -9 6 C-8 3 -8 3 -5.0625 1.3125 C-2 0 -2 0 0 0 Z " fill="#DFE7E2" transform="translate(181,268)"/>
<path d="M0 0 C0 0.66 0 1.32 0 2 C-0.99 2.33 -1.98 2.66 -3 3 C-3.4125 3.495 -3.825 3.99 -4.25 4.5 C-6.88955365 6.76247456 -9.62270673 6.68138743 -13 7 C-4.25 0 -4.25 0 0 0 Z " fill="#DBE3E6" transform="translate(145,146)"/>
<path d="M0 0 C2.475 0.495 2.475 0.495 5 1 C4.67 2.65 4.34 4.3 4 6 C2.68 6 1.36 6 0 6 C0 4.02 0 2.04 0 0 Z " fill="#539EDE" transform="translate(297,413)"/>
<path d="M0 0 C0.8971875 0.309375 0.8971875 0.309375 1.8125 0.625 C-3.8125 5.625 -3.8125 5.625 -7.1875 5.625 C-5.69046729 2.17030914 -4.27938051 -0.73360809 0 0 Z " fill="#EAEFEF" transform="translate(155.1875,189.375)"/>
<path d="M0 0 C0.33 0 0.66 0 1 0 C1.38281159 5.23175837 0.21854707 8.37802694 -2 13 C-2.33 13 -2.66 13 -3 13 C-3.31563182 7.73946963 -2.66590937 4.55426184 0 0 Z " fill="#B1CDE1" transform="translate(141,358)"/>
<path d="M0 0 C-5.28 -0.33 -10.56 -0.66 -16 -1 C-16 -1.33 -16 -1.66 -16 -2 C-9.47305215 -3.15181433 -5.92164036 -2.96082018 0 0 Z " fill="#D8DFE6" transform="translate(312,256)"/>
<path d="M0 0 C0.33 0.66 0.66 1.32 1 2 C2.32 1.67 3.64 1.34 5 1 C2.63055987 3.61885488 0.16266898 5.41866551 -3 7 C-3.99 6.67 -4.98 6.34 -6 6 C-4.68 5.67 -3.36 5.34 -2 5 C-2 4.01 -2 3.02 -2 2 C-1.34 2 -0.68 2 0 2 C0 1.34 0 0.68 0 0 Z " fill="#AED7EB" transform="translate(418,464)"/>
<path d="M0 0 C0.33 0 0.66 0 1 0 C1 5.28 1 10.56 1 16 C-0.32 15.34 -1.64 14.68 -3 14 C-2.01 13.67 -1.02 13.34 0 13 C0 8.71 0 4.42 0 0 Z " fill="#70A9CF" transform="translate(253,407)"/>
<path d="M0 0 C0.33 0.66 0.66 1.32 1 2 C1.66 2 2.32 2 3 2 C2.814375 2.61875 2.62875 3.2375 2.4375 3.875 C1.76313824 6.04160178 1.76313824 6.04160178 3 8 C2.01 8.33 1.02 8.66 0 9 C-0.33 8.67 -0.66 8.34 -1 8 C-0.82364548 5.30917128 -0.38164079 2.67148554 0 0 Z " fill="#AEC7D6" transform="translate(440,348)"/>
<path d="M0 0 C2.31 0 4.62 0 7 0 C4.94876752 2.05123248 3.72994937 2.64147118 1.0625 3.625 C0.02802734 4.01558594 0.02802734 4.01558594 -1.02734375 4.4140625 C-3 5 -3 5 -6 5 C-6 4.34 -6 3.68 -6 3 C-4.02 2.67 -2.04 2.34 0 2 C0 1.34 0 0.68 0 0 Z " fill="#EEF3F4" transform="translate(177,153)"/>
<path d="M0 0 C0.66 0.66 1.32 1.32 2 2 C1.360625 2.2475 0.72125 2.495 0.0625 2.75 C-2.19895007 3.79688294 -2.19895007 3.79688294 -2.5625 6.0625 C-2.7790625 7.0215625 -2.7790625 7.0215625 -3 8 C-3.99 8.33 -4.98 8.66 -6 9 C-4.68775452 5.06326356 -3.08089673 2.77280706 0 0 Z " fill="#0D3051" transform="translate(436,323)"/>
<path d="M0 0 C1.32 0.33 2.64 0.66 4 1 C3.67 1.66 3.34 2.32 3 3 C3.66 3 4.32 3 5 3 C5.66 4.98 6.32 6.96 7 9 C4.03595495 6.19195732 1.55500981 3.81684226 0 0 Z " fill="#66A7D2" transform="translate(163,323)"/>
<path d="M0 0 C1.125 1.75 1.125 1.75 2 4 C1.125 6.25 1.125 6.25 0 8 C-0.99 8 -1.98 8 -3 8 C-1.125 2.25 -1.125 2.25 0 0 Z " fill="#CFE7F0" transform="translate(219,240)"/>
<path d="M0 0 C0.66 0.66 1.32 1.32 2 2 C1.68134222 5.29279709 0.45484649 6.86535088 -2 9 C-2.33 8.34 -2.66 7.68 -3 7 C-2.06421005 4.64018187 -1.06652192 2.30368736 0 0 Z " fill="#C3DAE0" transform="translate(224,228)"/>
<path d="M0 0 C0 0.33 0 0.66 0 1 C-5.08086796 1.84681133 -9.84828377 2.09038099 -15 2 C-15 1.67 -15 1.34 -15 1 C-9.4584498 -0.96263236 -5.79141983 -1.01603857 0 0 Z " fill="#FAFDFD" transform="translate(303,253)"/>
<path d="M0 0 C0.99 0 1.98 0 3 0 C1.9024777 2.99324263 1.32317108 3.84610901 -1.625 5.25 C-2.40875 5.4975 -3.1925 5.745 -4 6 C-2.84826645 3.53199953 -1.95216435 1.95216435 0 0 Z " fill="#162844" transform="translate(142,173)"/>
<path d="M0 0 C2.86724686 0.57344937 3.8614515 0.8614515 6 3 C5.01 3.99 4.02 4.98 3 6 C2.67 4.68 2.34 3.36 2 2 C1.34 2 0.68 2 0 2 C0 1.34 0 0.68 0 0 Z " fill="#A4CDD9" transform="translate(282,490)"/>
<path d="M0 0 C0 0.99 0 1.98 0 3 C-1.98 3.99 -3.96 4.98 -6 6 C-6.66 5.34 -7.32 4.68 -8 4 C-5.36 2.68 -2.72 1.36 0 0 Z " fill="#25425A" transform="translate(496,425)"/>
<path d="M0 0 C-1.24546405 3.73639216 -2.63404953 4.18756513 -6 6 C-6 3 -6 3 -4.6875 1.3125 C-3 0 -3 0 0 0 Z " fill="#172A44" transform="translate(281,261)"/>
<path d="M0 0 C1 3 1 3 1 6 C-0.98 6 -2.96 6 -5 6 C-5 5.34 -5 4.68 -5 4 C-4.360625 3.71125 -3.72125 3.4225 -3.0625 3.125 C-0.84793921 2.17176549 -0.84793921 2.17176549 0 0 Z " fill="#E9F0EF" transform="translate(215,248)"/>
<path d="M0 0 C2.64465038 3.1254959 3.84414715 6.08788267 5 10 C2 9 2 9 0.8125 6.6875 C0 4 0 4 0 0 Z " fill="#DFE2E6" transform="translate(402,208)"/>
<path d="M0 0 C4.455 1.98 4.455 1.98 9 4 C9 4.33 9 4.66 9 5 C5.625 4.75 5.625 4.75 2 4 C1.34 2.68 0.68 1.36 0 0 Z " fill="#E7ECEF" transform="translate(485,164)"/>
<path d="M0 0 C2.95409701 1.37154504 5.44008376 2.98863724 8 5 C7.67 5.66 7.34 6.32 7 7 C5.82780457 6.21654285 4.66236332 5.42297164 3.5 4.625 C2.8503125 4.18414062 2.200625 3.74328125 1.53125 3.2890625 C1.0259375 2.86367188 0.520625 2.43828125 0 2 C0 1.34 0 0.68 0 0 Z " fill="#E4EDF0" transform="translate(454,263)"/>
<path d="M0 0 C0.66 0 1.32 0 2 0 C2.79953138 3.28696233 3.09658936 4.71023192 2 8 C1.34 8 0.68 8 0 8 C0 5.36 0 2.72 0 0 Z " fill="#435266" transform="translate(237,228)"/>
<path d="M0 0 C0.99 0.33 1.98 0.66 3 1 C1.68 2.65 0.36 4.3 -1 6 C-1.99 5.67 -2.98 5.34 -4 5 C-2.68 3.35 -1.36 1.7 0 0 Z " fill="#E4E8E9" transform="translate(317,222)"/>
<path d="M0 0 C0.66 0.33 1.32 0.66 2 1 C0.02 3.31 -1.96 5.62 -4 8 C-4.33 7.01 -4.66 6.02 -5 5 C-3.35 3.35 -1.7 1.7 0 0 Z " fill="#122342" transform="translate(134,181)"/>
<path d="M0 0 C4.455 1.98 4.455 1.98 9 4 C8.01 4.66 7.02 5.32 6 6 C3.96166576 4.7260411 1.96147874 3.38938077 0 2 C0 1.34 0 0.68 0 0 Z " fill="#E3E9ED" transform="translate(423,129)"/>
<path d="M0 0 C1.32 0 2.64 0 4 0 C4 0.99 4 1.98 4 3 C2.68 3 1.36 3 0 3 C0 2.01 0 1.02 0 0 Z " fill="#B6DDE0" transform="translate(60,357)"/>
<path d="M0 0 C0.99 0.33 1.98 0.66 3 1 C3 1.66 3 2.32 3 3 C2.01 3.33 1.02 3.66 0 4 C0 2.68 0 1.36 0 0 Z " fill="#B5DCDE" transform="translate(535,340)"/>
<path d="M0 0 C4 1 4 1 4 1 Z " fill="#B5DBDE" transform="translate(539,366)"/>
<path d="M0 0 C0.66 0 1.32 0 2 0 C2 0.66 2 1.32 2 2 C1.34 2 0.68 2 0 2 C0 1.34 0 0.68 0 0 Z " fill="#B6DDE0" transform="translate(40,357)"/>
<path d="M0 0 C2 1 2 1 2 1 Z " fill="#B4DADE" transform="translate(542,364)"/>
<path d="" fill="#B6DDE0" transform="translate(0,0)"/>
<path d="" fill="#B6DDDF" transform="translate(0,0)"/>
<path d="" fill="#B5D8DC" transform="translate(0,0)"/>
<path d="" fill="#B6DDE0" transform="translate(0,0)"/>
<path d="" fill="#B6DCE2" transform="translate(0,0)"/>
<path d="" fill="#B6DDE0" transform="translate(0,0)"/>
<path d="" fill="#B5D8DC" transform="translate(0,0)"/>
<path d="" fill="#B5D8DC" transform="translate(0,0)"/>
</svg>
